<?xml version="1.0" encoding="UTF-8"?>
<svg width="140px" height="140px" viewBox="0 0 140 140" version="1.1" xmlns="http://www.w3.org/2000/svg" xmlns:xlink="http://www.w3.org/1999/xlink">
    <!-- Generator: Sketch 48.2 (47327) - http://www.bohemiancoding.com/sketch -->
    <title>Artboard</title>
    <desc>Created with Sketch.</desc>
    <defs></defs>
    <g id="Page-1" stroke="none" stroke-width="1" fill="none" fill-rule="evenodd">
        <g id="Artboard">
            <rect id="Rectangle" fill="#DA532C" x="0" y="0" width="140" height="140" rx="10"></rect>
            <g id="doubtfire-logo-person-white" transform="translate(21.000000, 11.000000)" fill="#FFFFFF">
                <g id="Layer1" transform="translate(0.000000, 9.000000)">
                    <g id="Shape1" transform="translate(11.764706, 48.608108)" fill-rule="nonzero">
                        <path d="M85.5160294,12.9714419 L73.2770588,0.712624324 C72.6494118,0.0839594595 71.7079412,0.555458108 71.7079412,1.34128919 L71.7079412,9.35661892 C71.7079412,9.82811757 71.2372059,10.2996162 70.7664706,10.2996162 L59.6260294,10.2996162 C56.0170588,10.2996162 53.0358824,13.285627 53.0358824,16.90045 L53.0358824,31.3594473 C53.0358824,31.9881122 52.5651471,32.4596108 51.9375,32.4596108 L35.1482353,32.4596108 C31.5392647,32.4596108 28.5579412,35.4457689 28.5579412,39.0604446 L28.5579412,51.947927 C28.5579412,52.5765919 28.0873529,53.0480905 27.4597059,53.0480905 L3.29573529,53.0480905 C1.25588235,53.0480905 -0.313235294,54.7767716 0.1575,56.8199324 C0.471323529,58.3915946 1.88352941,59.4917581 3.60941176,59.4917581 L28.4010294,59.4917581 C32.01,59.4917581 34.9913235,56.5056 34.9913235,52.8909243 L34.9913235,40.0034419 C34.9913235,39.374777 35.4620588,38.9032784 36.0897059,38.9032784 L52.8789706,38.9032784 C56.4877941,38.9032784 59.4691176,35.9172676 59.4691176,32.3024446 L59.4691176,17.8434473 C59.4691176,17.2147824 59.9398529,16.7432838 60.5675,16.7432838 L70.7664706,16.7432838 C71.2372059,16.7432838 71.7079412,17.2147824 71.7079412,17.6862811 L71.7079412,25.7016108 C71.7079412,26.4874419 72.6494118,26.9589405 73.2770588,26.3302757 L85.5160294,14.0714581 C85.9866176,13.9142919 85.9866176,13.4427932 85.5160294,12.9714419 Z" id="shapePath1"></path>
                    </g>
                    <g id="Shape2" transform="translate(28.411765, 0.000000)">
                        <path d="M19.1288235,6.72942432 C19.1288235,11.8505095 14.9839706,16.0020838 9.87117647,16.0020838 C4.75823529,16.0020838 0.613529412,11.8505095 0.613529412,6.72942432 C0.613529412,1.60833919 5.99235294,5.97261081 10.5622059,2.51554324 C16.6625,-2.09913378 19.1288235,1.60833919 19.1288235,6.72942432 Z" id="shapePath2"></path>
                    </g>
                    <g id="Shape3" transform="translate(0.000000, 16.202703)">
                        <path d="M71.3907353,2.31404054 C69.6647059,0.585212162 66.9972059,0.27087973 64.9575,1.52820946 L52.2477941,9.22920676 C51.6201471,9.70070541 50.8355882,9.70070541 50.0510294,9.38637297 L46.4422059,7.65754459 C46.1283824,7.50037838 45.8145588,7.18604595 45.5007353,6.87171351 C43.6177941,3.88555541 40.1658824,1.68537568 36.2430882,1.68537568 C33.1048529,1.68537568 30.2805882,2.94270541 28.2407353,4.98571892 C28.0838235,5.14288514 27.9269118,5.14288514 27.9269118,5.30005135 L27.77,5.45721757 C27.2992647,5.61438378 26.8285294,5.77155 26.3577941,6.08588243 L9.09779412,18.1875338 C8.47014706,18.6590324 7.99941176,19.1305311 7.68558824,19.7591959 L0.938529412,31.2320351 C-2.07338235,37.0470378 7.68558824,40.9081419 9.72544118,36.1041878 L15.845,25.7313649 C15.845,25.5741986 16.0017647,25.4170324 16.1586765,25.4170324 L24.0041176,19.9162149 L24.4748529,19.6020297 C24.7886765,19.2876973 25.4163235,19.6020297 25.4163235,20.0733811 L25.2594118,30.6033703 C25.2594118,32.9608635 25.8870588,35.1611905 27.1423529,37.0470378 C27.1423529,37.2042041 27.4561765,37.3613703 27.77,37.8328689 L19.14,74.6091743 C18.6692647,76.9666676 19.6107353,79.3240135 21.6505882,80.424177 C22.4351471,80.8956757 23.2197059,81.0528419 24.0041176,81.0528419 C26.3577941,81.0528419 28.3976471,79.4811797 28.8683824,77.1238338 L37.1845588,41.7620243 C37.1845588,41.7620243 37.3414706,41.7620243 37.3414706,41.6048581 C39.3813235,41.4476919 41.1072059,40.6618608 42.6763235,39.5616973 C42.9901471,39.4045311 43.3039706,39.2473649 43.6177941,39.5616973 C45.03,40.3475284 49.1097059,42.5478554 50.3648529,43.3336865 C50.6786765,43.4908527 50.8355882,43.8051851 50.8355882,44.1195176 L51.6201471,56.3781878 C51.7770588,59.0500135 53.9738235,61.0931743 56.6413235,61.0931743 C56.7982353,61.0931743 56.7982353,61.0931743 56.9551471,61.0931743 C59.7794118,60.9360081 61.9761765,58.4213486 61.6623529,55.5923568 L60.7208824,40.5046946 C60.5639706,38.7758662 59.6225,37.2042041 58.0533824,36.4185203 L47.8544118,30.7605365 C47.3836765,30.4462041 46.9129412,29.8175392 46.9129412,29.1888743 L47.0698529,20.3877135 C47.0698529,19.9162149 47.6975,19.4448635 48.1682353,19.7591959 L49.1097059,20.2305473 C50.6786765,21.0163784 52.5616176,20.8592122 53.9738235,20.0733811 L70.1354412,10.1722041 C72.9598529,8.60054189 73.7442647,4.8285527 71.3907353,2.31404054 Z" id="shapePath3"></path>
                    </g>
                </g>
                <g id="Layer2" transform="translate(21.000000, 0.000000)" fill-rule="nonzero">
                    <g id="Shape4" transform="translate(6.250000, 6.000000)">
                        <path d="M9.95048,6.45195 C9.957875,6.45225 9.964835,6.45225 9.97252,6.45225 C10.074165,6.45225 10.172475,6.4146 10.24686,6.34605 L16.900475,0.1965 L18.207505,3.9162 C18.182855,3.98355 17.95332,4.4289 16.01902,5.40465 C14.566555,6.13725 12.616595,6.93165 10.528305,7.641 C7.275375,8.74575 4.22791,9.45915 2.76457,9.45945 C2.32232,9.45945 2.180655,9.3909 2.14832,9.37095 L0.95207,5.96775 L9.95048,6.45195 Z" id="shapePath4"></path>
                    </g>
                    <g id="Shape5" transform="translate(0.450000, 0.000000)">
                        <path d="M5.381965,10.19055 C6.095655,8.21265 11.630595,6.98505 13.702935,6.67905 C13.92203,6.6468 14.07254,6.4461 14.03948,6.231 C14.00671,6.0159 13.804,5.8674 13.583455,5.90025 C13.50414,5.91195 11.608555,6.1956 9.56304,6.8103 C6.726405,7.66245 5.06601,8.71125 4.62724,9.9276 C4.4689,10.3659 4.366385,10.73415 4.30099,11.04795 L0.360325,10.836 L11.86506,0.91665 L26.937955,1.1994 L15.62288,11.6568 L5.108785,11.09115 C5.1678,10.83915 5.25422,10.5432 5.381965,10.19055 Z" id="shapePath5"></path>
                    </g>
                    <g id="Shape6" transform="translate(0.000000, 10.500000)">
                        <path d="M0.14579,4.09545 C0.38185,3.29505 1.708455,3.2541 1.971775,3.2541 L2.014985,3.2568 C2.65313,3.32535 3.173245,3.1908 3.60694,2.84595 C4.56974,2.0796 4.742,0.5625 4.74374,0.54735 L5.55632,0.59115 C5.54936,0.66735 5.33824,2.478 4.11502,3.4551 C3.51994,3.92985 2.791895,4.1283 1.951475,4.0419 C1.441365,4.0473 0.94967,4.1967 0.91487,4.31475 C0.91429,4.3185 0.8589,4.689 2.25583,5.65695 C2.53771,5.5629 2.89238,5.63655 3.16382,5.877 C3.349855,6.04155 3.46165,6.2526 3.4921,6.4608 C3.986115,6.72045 6.198815,8.06265 7.29052,11.71995 C7.32155,11.8239 7.26065,11.93385 7.154655,11.9643 C7.13624,11.96985 7.116955,11.9724 7.098395,11.9724 C7.01212,11.9724 6.93237,11.9166 6.906705,11.8311 C6.017855,8.8539 4.32788,7.467 3.589685,6.9822 C4.35891,7.64835 6.823185,10.00395 5.58068,11.8659 C5.541675,11.9235 5.478165,11.95485 5.412915,11.95485 C5.37536,11.95485 5.33679,11.9445 5.303005,11.9226 C5.210205,11.86305 5.184975,11.74125 5.24573,11.6499 C6.29553,10.07775 4.046435,7.91265 3.3326,7.28595 C3.96364,7.96365 5.16888,9.4386 5.04824,10.7025 C4.996475,11.25 4.705025,11.69595 4.185055,12.02715 C4.15214,12.04875 4.11386,12.0585 4.076305,12.0585 C4.011055,12.0585 3.946675,12.02685 3.90854,11.96865 C3.84822,11.8776 3.8749,11.75565 3.96799,11.69625 C4.38559,11.4306 4.608745,11.0937 4.64978,10.6662 C4.77767,9.32775 3.081895,7.58535 2.74564,7.2534 C2.53742,7.2402 2.32021,7.15515 2.14012,6.9954 C1.923635,6.8037 1.81097,6.54945 1.805895,6.3093 C0.483785,5.3973 -0.03285,4.70145 0.14579,4.09545 Z" id="shapePath6"></path>
                    </g>
                </g>
            </g>
        </g>
    </g>
</svg>